<svg xmlns="http://www.w3.org/2000/svg" version="1.1" xmlns:xlink="http://www.w3.org/1999/xlink"
    xmlns:svgjs="http://svgjs.dev/svgjs" stroke="yellow" width="120" height="120"
    viewBox="0 0 2000 2000">
    <g transform="matrix(1,0,0,1,0,0)">
        <svg viewBox="0 0 280 280" data-background-color="#ffffff"
            preserveAspectRatio="xMidYMid meet" height="2000" width="2000"
            xmlns="http://www.w3.org/2000/svg" xmlns:xlink="http://www.w3.org/1999/xlink">
            <g id="tight-bounds" transform="matrix(1,0,0,1,0,0)">
                <svg viewBox="0 0 280 280" height="280" width="280">
                    <g>
                        <svg viewBox="0 0 280 280" height="280" width="280">
                            <g>
                                <svg viewBox="0 0 280 280" height="280" width="280">
                                    <g id="textblocktransform">
                                        <svg viewBox="0 0 280 280" height="280" width="280"
                                            id="textblock">
                                            <g>
                                                <svg viewBox="0 0 280 280" height="280" width="280">
                                                    <g
                                                        transform="matrix(1,0,0,1,90.50252531694167,117.4442068348622)">
                                                        <svg
                                                            viewBox="0 0 98.99494936611664 45.1115863302756"
                                                            height="45.1115863302756"
                                                            width="98.99494936611664">
                                                            <g id="icon-0">
                                                                <svg
                                                                    xmlns="http://www.w3.org/2000/svg"
                                                                    xmlns:xlink="http://www.w3.org/1999/xlink"
                                                                    version="1.1" x="0" y="0"
                                                                    viewBox="5 29.49387475885969 90 41.012625348283166"
                                                                    enable-background="new 0 0 100 100"
                                                                    xml:space="preserve"
                                                                    height="45.1115863302756"
                                                                    width="98.99494936611664"
                                                                    class="icon-xg-0"
                                                                    data-fill-palette-color="accent"
                                                                    id="xg-0"><g fill="#61777f" data-fill-palette-color="accent"><path d="M23.943 30.807L5 50.001l18.942 19.192c1.728 1.751 4.53 1.751 6.258 0.002 1.729-1.75 1.73-4.587 0.002-6.338L18.193 50.695l-3.624 2.289 15.634-15.841c0.864-0.875 1.295-2.021 1.295-3.168 0-1.147-0.433-2.295-1.297-3.17C28.473 29.056 25.671 29.057 23.943 30.807z" fill="yellow" data-fill-palette-color="accent"></path><path d="M76.057 30.808L95 50.001 76.058 69.193c-1.728 1.751-4.53 1.751-6.258 0.002-1.729-1.75-1.73-4.587-0.002-6.338l12.009-12.161 3.624 2.289L69.796 37.144c-0.864-0.875-1.295-2.021-1.295-3.168 0-1.147 0.433-2.295 1.297-3.17C71.527 29.056 74.329 29.057 76.057 30.808z" fill="yellow" data-fill-palette-color="accent"></path><path d="M60.899 32.352c-0.419-1.068-1.241-1.978-2.366-2.476-2.249-0.997-4.857 0.028-5.825 2.288l-13.82 32.062c-0.484 1.13-0.467 2.355-0.048 3.422 0.419 1.068 1.241 1.978 2.366 2.476 2.249 0.997 4.857-0.028 5.825-2.288l13.82-32.062C61.335 34.644 61.318 33.419 60.899 32.352z" fill="yellow" data-fill-palette-color="accent"></path></g></svg>
                                                            </g>
                                                        </svg>
                                                    </g>
                                                    <g id="text-0">
                                                        <path
                                                            d="M21.306 107.842l6.976 3.534-0.859 2.642-25.147-12.824 1.724-5.303 27.89 4.388-0.856 2.632-7.724-1.234zM5.284 100.025l8.22 4.086 5.505 2.712 1.848-5.682-6.054-1.089-9.042-1.494z"
                                                            fill="yellow"
                                                            data-fill-palette-color="primary"></path>
                                                        <path
                                                            d="M43.129 79.93v0c-1.282 1.977-2.512 3.166-3.689 3.565-1.183 0.396-2.542 0.144-4.078-0.758v0c-1.553-0.912-3.067-1.894-4.544-2.947v0l1.436-2.214c0.74 0.543 1.547 1.098 2.421 1.665 0.88 0.571 1.713 1.079 2.499 1.526v0c0.662 0.358 1.304 0.387 1.926 0.086 0.619-0.295 1.307-1.027 2.066-2.197v0c0.737-1.136 1.117-2.052 1.142-2.748 0.024-0.696-0.278-1.249-0.908-1.657v0l-19.791-12.835 1.479-2.281 19.415 12.592c1.493 0.968 2.294 2.081 2.404 3.339 0.104 1.254-0.488 2.876-1.778 4.864z"
                                                            fill="yellow"
                                                            data-fill-palette-color="primary"></path>
                                                        <path
                                                            d="M55.601 53.033l4.235 6.575-2.076 1.846-15.224-23.771 4.167-3.706 21.853 17.876-2.069 1.839-6.042-4.966zM45.722 38.194l5.03 7.679 3.382 5.121 4.464-3.97-4.675-3.998-7.048-5.858z"
                                                            fill="yellow"
                                                            data-fill-palette-color="primary"></path>
                                                        <path
                                                            d="M86.591 32.641l3.213 6.454-2.469 1.229-3.226-6.48-14.299-15.939 2.532-1.26 5.355 5.931 5.43 7.107 0.784-0.39-2.479-8.576-1.505-7.849 2.567-1.278z"
                                                            fill="yellow"
                                                            data-fill-palette-color="primary"></path>
                                                        <path
                                                            d="M140.928 2.503l0.016 25.38-2.719 0.002-0.016-25.381-5.327 0.004-0.001-2.5 13.392-0.008 0.002 2.499z"
                                                            fill="yellow"
                                                            data-fill-palette-color="primary"></path>
                                                        <path
                                                            d="M172.646 3.644l-5.667 27.298-2.652-0.55 5.668-27.298z"
                                                            fill="yellow"
                                                            data-fill-palette-color="primary"></path>
                                                        <path
                                                            d="M196.002 32.724l-4.893 7.516-4.464-2.294 10.699-25.848 2.427 1.248-4.297 9.994-5.791 13.358 0.832 0.427 7.509-12.474 5.827-8.984 4.286 2.203-3.861 9.994-5.879 13.312 0.833 0.428 7.526-12.465 5.679-9.285 2.391 1.229-14.826 23.727-4.446-2.285 3.228-8.372 6.593-15.005-0.956-0.492z"
                                                            fill="yellow"
                                                            data-fill-palette-color="primary"></path>
                                                        <path
                                                            d="M223.449 53.072l-6.23 4.725-2-1.928 22.535-16.999 4.014 3.87-16.149 23.158-1.993-1.921 4.489-6.405zM237.489 42.085l-7.271 5.604-4.847 3.764 4.3 4.147 3.628-4.967 5.301-7.476z"
                                                            fill="yellow"
                                                            data-fill-palette-color="primary"></path>
                                                        <path
                                                            d="M246.534 76.744l-8.972 5.348-1.392-2.335 23.948-14.276 3.308 5.551c1.186 1.99 1.726 3.635 1.621 4.935-0.1 1.296-0.87 2.443-2.309 3.439v0c-1.19 0.856-2.307 1.588-3.351 2.195-1.05 0.611-2.131 1.189-3.243 1.736v0c-1.049 0.548-2.031 0.747-2.947 0.598-0.919-0.155-1.851-0.693-2.794-1.615v0l-6.866 9.796-1.519-2.549 6.637-9.265zM261.28 72.312l-1.917-3.216-10.683 6.368 1.882 3.156c0.751 1.26 1.448 2.073 2.091 2.439 0.643 0.366 1.306 0.377 1.99 0.032v0c2.383-1.189 4.661-2.546 6.833-4.074v0c0.629-0.436 0.936-1.022 0.924-1.756-0.013-0.734-0.386-1.717-1.12-2.949z"
                                                            fill="yellow"
                                                            data-fill-palette-color="primary"></path>
                                                        <path
                                                            d="M277.724 103.661l-26.555 8.491-0.825-2.58 26.555-8.491z"
                                                            fill="yellow"
                                                            data-fill-palette-color="primary"></path>
                                                        <path
                                                            d="M17.937 182.14l-7.721 1.244-0.859-2.642 27.881-4.416 1.724 5.303-25.138 12.853-0.856-2.633 6.973-3.544zM35.492 179.04l-9.052 1.529-6.047 1.045 1.848 5.681 5.536-2.679 8.192-4.108z"
                                                            fill="yellow"
                                                            data-fill-palette-color="primary"></path>
                                                        <path
                                                            d="M26.773 219.564v0c-1.282-1.977-1.866-3.585-1.751-4.822 0.121-1.241 0.906-2.379 2.355-3.414v0c1.466-1.046 2.981-2.028 4.545-2.947v0l1.436 2.214c-0.797 0.454-1.633 0.964-2.508 1.531-0.88 0.571-1.684 1.124-2.413 1.66v0c-0.597 0.458-0.885 1.033-0.864 1.723 0.017 0.685 0.405 1.613 1.163 2.782v0c0.737 1.136 1.418 1.857 2.044 2.164 0.626 0.306 1.253 0.255 1.883-0.153v0l19.791-12.835 1.479 2.28-19.415 12.592c-1.493 0.968-2.836 1.246-4.029 0.833-1.188-0.416-2.426-1.619-3.716-3.607z"
                                                            fill="yellow"
                                                            data-fill-palette-color="primary"></path>
                                                        <path
                                                            d="M53.247 238.501l-6.035 4.973-2.076-1.846 21.831-17.895 4.166 3.705-15.201 23.791-2.069-1.84 4.227-6.581zM66.831 226.957l-7.039 5.892-4.691 3.956 4.464 3.97 3.425-5.109 4.994-7.684z"
                                                            fill="yellow"
                                                            data-fill-palette-color="primary"></path>
                                                        <path
                                                            d="M84.55 260.344l-3.213 6.453-2.469-1.229 3.226-6.48 4.102-21.016 2.531 1.26-1.505 7.849-2.399 8.616 0.784 0.391 5.35-7.147 5.356-5.932 2.567 1.278z"
                                                            fill="yellow"
                                                            data-fill-palette-color="primary"></path>
                                                        <path
                                                            d="M140.948 254.619l-0.016 25.381-2.719-0.002 0.016-25.38-5.327-0.004 0.002-2.499 13.392 0.009-0.001 2.499z"
                                                            fill="yellow"
                                                            data-fill-palette-color="primary"></path>
                                                        <path
                                                            d="M165.174 249.247l5.667 27.297-2.652 0.551-5.667-27.298z"
                                                            fill="yellow"
                                                            data-fill-palette-color="primary"></path>
                                                        <path
                                                            d="M196.529 257.188l3.264 8.354-4.464 2.294-14.79-23.745 2.426-1.247 5.626 9.311 7.491 12.484 0.832-0.428-5.773-13.367-3.913-9.967 4.286-2.203 5.88 8.957 7.402 12.529 0.832-0.428-5.755-13.375-4.244-10.022 2.391-1.229 10.664 25.866-4.446 2.285-4.928-7.498-8.364-14.095-0.957 0.492z"
                                                            fill="yellow"
                                                            data-fill-palette-color="primary"></path>
                                                        <path
                                                            d="M225.909 238.365l4.496 6.398-1.999 1.929-16.171-23.138 4.013-3.87 22.557 16.979-1.992 1.921-6.238-4.719zM215.439 223.936l5.336 7.47 3.585 4.98 4.301-4.147-4.832-3.806-7.279-5.568z"
                                                            fill="yellow"
                                                            data-fill-palette-color="primary"></path>
                                                        <path
                                                            d="M244.907 211.173l8.972 5.349-1.392 2.335-23.947-14.276 3.308-5.551c1.186-1.99 2.376-3.247 3.571-3.772 1.188-0.528 2.563-0.397 4.123 0.395v0c1.319 0.639 2.494 1.274 3.525 1.904 1.037 0.633 2.06 1.309 3.069 2.027v0c0.981 0.662 1.623 1.431 1.928 2.308 0.301 0.883 0.27 1.958-0.092 3.226v0l11.882 1.38-1.519 2.549-11.307-1.432zM233.995 200.31l-1.917 3.216 10.683 6.368 1.881-3.156c0.751-1.26 1.135-2.26 1.151-3 0.016-0.74-0.29-1.328-0.919-1.765v0c-2.179-1.531-4.457-2.889-6.833-4.074v0c-0.683-0.345-1.344-0.338-1.985 0.023-0.64 0.36-1.327 1.156-2.061 2.388z"
                                                            fill="yellow"
                                                            data-fill-palette-color="primary"></path>
                                                        <path
                                                            d="M242.707 174.03l26.556 8.49-0.825 2.58-26.555-8.491z"
                                                            fill="yellow"
                                                            data-fill-palette-color="primary"></path>
                                                        <path
                                                            d="M3.395 144.443c0-5.882 4.768-10.65 10.65-10.65 5.882 0 10.65 4.768 10.65 10.65 0 5.882-4.768 10.65-10.65 10.65-5.882 0-10.65-4.768-10.65-10.65z"
                                                            fill="yellow"
                                                            data-fill-palette-color="primary"></path>
                                                        <path
                                                            d="M254.318 144.443c0-5.882 4.768-10.65 10.65-10.65 5.882 0 10.65 4.768 10.65 10.65 0 5.882-4.768 10.65-10.65 10.65-5.882 0-10.65-4.768-10.65-10.65z"
                                                            fill="yellow"
                                                            data-fill-palette-color="primary"></path>
                                                    </g>
                                                    <g id="text-1"></g>
                                                </svg>
                                            </g>
                                        </svg>
                                    </g>
                                </svg>
                            </g>
                        </svg>
                    </g>
                    <defs></defs>
                </svg>
                <rect width="280" height="280" fill="none" stroke="none" visibility="hidden"></rect>
            </g>
        </svg>
    </g>
</svg>